 <svg id="control-dispatch" version="1.0" xmlns="http://www.w3.org/2000/svg" viewBox="0 0 600.000000 600.000000">
 <g transform="translate(0.000000,600.000000) scale(0.100000,-0.100000)">
 <path d="M3027 5426 c-14 -13 -33 -38 -42 -56 -22 -43 -8 -98 36 -134 l30 -26 -2 -342 -2 -343 52 -3 52 -3 -2 346 -2 345 36 35 c20 20 40 47 43 61 9 34 -20 96 -57 123 -40 30 -108 29 -142 -3z m98 -76 c11 -18 -6 -50 -26 -50 -22 0 -34 22 -25 45 6 17 42 20 51 5z"/> <path d="M915 5303 c-35 -9 -63 -34 -80 -70 -23 -49 -14 -98 27 -140 29 -30 37 -33 84 -32 48 2 55 -1 82 -32 67 -76 763 -769 773 -769 12 0 58 51 59 66 0 6 -180 190 -401 410 l-400 399 5 37 c12 78 -71 151 -149 131z m50 -103 c8 -14 -13 -50 -30 -50 -15 0 -30 35 -20 50 8 13 42 13 50 0z"/> <path d="M5188 5303 c-17 -3 -41 -21 -63 -46 -32 -37 -35 -46 -30 -82 l6 -40 -400 -399 c-221 -220 -401 -404 -401 -410 1 -18 48 -66 65 -66 8 0 25 12 38 27 12 15 189 195 394 400 l371 373 49 0 c43 0 53 4 82 34 88 91 16 227 -111 209z m57 -123 c0 -32 -30 -39 -45 -10 -14 26 -4 42 23 38 16 -2 22 -10 22 -28z"/> <path d="M2323 4136 c-3 -5 -4 -133 -2 -285 l4 -276 -231 4 c-237 3 -255 1 -294 -37 -13 -14 -15 -118 -18 -843 l-2 -828 27 -31 28 -30 385 -5 c212 -2 741 -4 1175 -5 l790 -1 0 1171 0 1171 -928 2 c-520 1 -931 -2 -934 -7z m1762 -1162 l0 -1067 -605 0 -605 0 -2 161 c-2 120 0 161 10 163 6 2 206 2 442 -1 237 -3 433 -4 438 -2 4 2 7 347 7 768 l0 764 -277 0 c-153 0 -287 3 -299 6 -29 8 -54 -20 -54 -59 0 -61 -6 -60 271 -56 l254 4 3 -662 c2 -627 1 -663 -15 -663 -15 0 -740 0 -768 0 -7 0 -9 201 -7 590 l4 590 -36 36 -36 36 -193 -3 -192 -4 -3 225 c-1 123 -1 229 2 235 2 7 275 9 832 8 l829 -2 0 -1067z m-1310 -283 l0 -783 -445 1 -445 0 -3 783 -2 783 447 -1 448 0 0 -783z"/> <path d="M2215 2211 c-3 -2 -5 -26 -5 -53 l0 -48 121 0 120 0 -3 52 -3 53 -113 0 c-62 1 -115 -1 -117 -4z"/> <path d="M880 3078 c-46 -31 -62 -63 -57 -116 5 -49 31 -82 84 -107 33 -16 38 -16 75 1 21 10 49 31 60 47 l21 30 201 -4 201 -4 0 50 0 50 -201 -4 -202 -3 -33 36 c-45 50 -99 58 -149 24z m80 -102 c0 -14 -4 -27 -9 -30 -15 -10 -41 5 -41 23 0 23 9 31 32 31 12 0 18 -7 18 -24z"/> <path d="M5164 3081 c-18 -11 -38 -29 -47 -41 -15 -21 -17 -22 -353 -20 -187 1 -345 1 -352 1 -9 -1 -12 -15 -10 -48 l3 -48 346 4 346 3 21 -29 c11 -16 39 -37 60 -47 37 -17 42 -17 75 -1 53 25 79 58 84 107 5 52 -11 85 -56 115 -41 28 -76 29 -117 4z m82 -96 c8 -20 -13 -45 -32 -38 -8 3 -14 16 -14 29 0 17 6 24 20 24 11 0 23 -7 26 -15z"/> <path d="M1763 1518 c-15 -17 -195 -199 -400 -405 l-371 -373 -49 0 c-42 0 -53 -4 -81 -33 -80 -82 -28 -211 84 -209 74 1 129 62 118 130 l-5 37 405 404 405 404 -32 38 c-18 21 -35 39 -39 39 -3 0 -19 -14 -35 -32z m-803 -888 c13 -25 5 -40 -21 -40 -22 0 -34 22 -25 45 8 21 33 19 46 -5z"/> <path d="M4323 1510 c-13 -15 -23 -32 -23 -37 0 -5 180 -189 401 -409 l400 -399 -5 -37 c-5 -31 -1 -43 27 -80 31 -40 36 -43 86 -46 49 -3 57 0 87 29 57 55 58 124 3 178 -26 26 -38 31 -81 31 l-50 0 -372 373 c-205 204 -380 384 -390 400 -23 35 -55 34 -83 -3z m922 -890 c0 -16 -6 -26 -19 -28 -27 -6 -40 12 -26 38 15 28 45 22 45 -10z"/> <path d="M3049 1423 c0 -5 0 -161 1 -348 l1 -340 -29 -22 c-93 -69 -39 -214 79 -213 30 1 52 8 70 23 29 24 59 76 59 102 0 21 -28 65 -58 91 l-25 20 2 347 2 347 -50 0 c-28 0 -51 -3 -52 -7z m71 -788 c16 -20 6 -45 -19 -45 -25 0 -34 14 -26 40 8 24 28 26 45 5z"/>
 </g>
 </svg>
