<svg id="north-icon" viewBox="0 0 70 70" fill="none" xmlns="http://www.w3.org/2000/svg">
<path fill-rule="evenodd" clip-rule="evenodd" d="M5 18.0792V8H49.5347V18.0792H5ZM2 7.29703C2 6.02841 3.02842 5 4.29703 5H50.2376C51.5063 5 52.5347 6.02842 52.5347 7.29703V18.7822C52.5347 20.0508 51.5063 21.0792 50.2376 21.0792H4.29703C3.02842 21.0792 2 20.0508 2 18.7822V7.29703ZM2 43.297C2 42.0284 3.02842 41 4.29703 41H28.2564C29.7897 40.333 31.6628 40.0899 33.6312 40.022C33.6891 39.7 33.7656 39.3856 33.8591 39.0792H4.29703C3.02842 39.0792 2 38.0508 2 36.7822V25.297C2 24.0284 3.02842 23 4.29703 23H50.2376C51.5063 23 52.5347 24.0284 52.5347 25.297V33.1663C52.9699 33.4153 53.3927 33.6943 53.8 34.0046C56.0466 35.7161 57.7176 38.3033 58.4115 41.8117C61.1317 41.7095 63.4551 42.8787 65.1684 44.6747C67.098 46.6975 68.2836 49.5284 68.5646 52.3804C68.8459 55.2353 68.2331 58.271 66.3499 60.6225C64.4341 63.0147 61.3626 64.5 57.1503 64.5H57.0561H56.9619H56.8678H56.7737H56.6797H56.5857H56.4918H56.3979H56.304H56.2102H56.1164H56.0227H55.929H55.8354H55.7418H55.6483H55.5548H55.4613H55.3679H55.2746H55.1813H55.0881H54.9949H54.9018H54.8087H54.7157H54.6227H54.5298H54.4369H54.3441H54.2514H54.1587H54.066H53.9735H53.8809H53.7885H53.6961H53.6037H53.5115H53.4193H53.3271H53.235H53.143H53.051H52.9591H52.8673H52.7755H52.6838H52.5922H52.5006H52.4091H52.3177H52.2263H52.135H52.0438H51.9526H51.8615H51.7705H51.6796H51.5887H51.4979H51.4072H51.3165H51.226H51.1355H51.0451H50.9547H50.8645H50.7743H50.6842H50.5941H50.5042H50.4143H50.3245H50.2348H50.1452H50.0556H49.9662H49.8768H49.7875H49.6983H49.6092H49.5201H49.4312H49.3423H49.2535H49.1648H49.0762H48.9877H48.8993H48.811H48.7227H48.6346H48.5465H48.4585H48.3707H48.2829H48.1952H48.1076H48.0201H47.9327H47.8454H47.7582H47.6711H47.5841H47.4972H47.4104H47.3237H47.237H47.1505H47.0641H46.9778H46.8916H46.8055H46.7195H46.6336H46.5478H46.4622H46.3766H46.2911H46.2057H46.1205H46.0353H45.9503H45.8654H45.7806H45.6959H45.6113H45.5268H45.4424H45.3581H45.274H45.19H45.106H45.0222H44.9386H44.855H44.7715H44.6882H44.605H44.5219H44.4389H44.356H44.2733H44.1907H44.1082H44.0258H43.9436H43.8614H43.7794H43.6975H43.6158H43.5341H43.4526H43.3712H43.29H43.2089H43.1279H43.047H42.9663H42.8856H42.8052H42.7248H42.6446H42.5645H42.4846H42.4047H42.325H42.2455H42.1661H42.0868H42.0076H41.9286H41.8498H41.771H41.6924H41.614H41.5357H41.4575H41.3794H41.3015H41.2238H41.1462H41.0687H40.9914H40.9142H40.8372H40.7603H40.6835H40.6069H40.5305H40.4542H40.378H40.302H40.2261H40.1504H40.0749H39.9994H39.9242H39.8491H39.7741H39.6993H39.6247H39.5502H39.4758H39.4016H39.3276H39.2537H39.18H39.1065H39.0331H38.9598H38.8867H38.8138H38.741H38.6684H38.596H38.5237H38.4516H38.3796H38.3079H38.2362H38.1648H38.0935H38.0223H37.9514H37.8806H37.81H37.7395H37.6692H37.5991H37.5291H37.4594H37.3897H37.3203H37.251H37.1819H37.113H37.0443H36.9757H36.9073H36.8391H36.771H36.7032H36.6355H36.568H36.5006H36.4335H36.3665H36.2997H36.2331H36.1666H36.1004H36.0343H35.9684H35.9027H35.8372H35.7719H35.7067H35.6417H35.577H35.5124H35.448H35.3837H35.3197H35.2559H35.1922H35.1288H35.0655H35.0024H34.9395H34.8768H34.8143H34.752H34.6899H34.628H34.5663H34.5048H34.4434H34.3823H34.3214H34.2606H34.2001H34.1397H34.0796H34.0197H33.9599H33.9004H33.841H33.7819H33.723H33.6643H33.6057H33.5474H33.4893H33.4314H33.3737H33.3162H33.2589H33.2019H33.145H33.0883H33.0319H32.9757H32.9196H32.8638H32.8082H32.7528H32.6977H32.6427H32.588H32.5334H32.4791H32.425H32.3711H32.3175H32.264H32.2108H32.1578H32.105H32.0524H32.0001H31.9479H31.896H31.8444H31.7929H31.7417H31.6906H31.6399H31.5893H31.539H31.4888H31.439H31.3893H31.3399H31.2907H31.2417H31.193H31.1445H31.0962H31.0481H31.0003H30.9527H30.9054H30.8583H30.8114H30.7647H30.7183H30.6721H30.6262H30.5805H30.535H30.4898H30.4448H30.4001H30.3556H30.3113H30.2673H30.2235H30.1799H30.1366H30.0936H30.0508H30.0082H29.9659H29.9238H29.882H29.8404H29.799H29.7579H29.7171H29.6765H29.6362H29.5961H29.5562H29.5166H29.4773H29.4382H29.3994H29.3608H29.3225H29.2844H29.2466H29.209H29.1717H29.1347H29.0979H29.0613H29.0251H28.9891H28.9533H28.9178H28.8826H28.8476H28.8129H28.7784H28.7443H28.7103H28.6767H28.6433H28.6102H28.5773H28.5447H28.5124H28.4803H28.4485H28.417H28.3857H28.3548H28.324H28.2936H28.2634H28.2335H28.2039H28.1745H28.1455H28.1167H28.0881H28.0599H28.0319H28.0042H27.9768H27.9496H27.9228H27.8962H27.8699H27.8438H27.8181H27.7926H27.7674H27.7425H27.7179H27.6936H27.6695H27.6457H27.6222H27.599H27.5761H27.5535H27.5312H27.5091H27.4874H27.4659H27.4447H27.4238H27.4032H27.3829H27.3629H27.3431H27.3237H27.3046H27.2857H27.2672H27.2489H27.231H27.2133H27.1959H27.1789H27.1621H27.1456H27.1294H27.1136H27.098H27.0827H27.0677H27.0531H27.0387H27.0247H27.0109H26.9974H26.9843H26.9714H26.9589H26.9467H26.9347H26.9231H26.9118H26.9008H26.8901H26.8797H26.8697H26.8599H26.8505H26.8413H26.8325H26.824H26.8158H26.8079H26.8004H26.7931H26.7862H26.7796H26.7733H26.7673H26.7616H26.7563H26.7512H26.7465H26.7421H26.7381H26.7343H26.7309H26.7278H26.7251H26.7226H26.7205H26.7187H26.7172H26.7161H26.7152H26.7148C26.7146 64.5 26.7146 64.5 26.7146 63V64.5H26.6128L26.5119 64.4863C23.1256 64.0245 20.5983 62.7696 18.9432 60.9729C17.8737 59.8119 17.2128 58.4713 16.9133 57.0792H4.29703C3.02842 57.0792 2 56.0508 2 54.7822V43.297ZM16.8054 54.0792C17.3222 50.2701 20.2531 46.7188 24.5996 45.7186C24.695 45.1036 24.8596 44.5296 25.0986 44H5V54.0792H16.8054ZM49.5347 31.9486V26H5V36.0792H35.4804C36.053 35.375 36.7248 34.7467 37.4621 34.202C39.6638 32.5756 42.5284 31.6229 45.4189 31.5116C46.7866 31.4589 48.1829 31.594 49.5347 31.9486ZM21.1497 58.9403C22.2121 60.0936 24.0049 61.0989 26.8186 61.5H26.824H26.8325H26.8413H26.8505H26.8599H26.8697H26.8797H26.8901H26.9008H26.9118H26.9231H26.9347H26.9467H26.9589H26.9714H26.9843H26.9974H27.0109H27.0247H27.0387H27.0531H27.0677H27.0827H27.098H27.1136H27.1294H27.1456H27.1621H27.1789H27.1959H27.2133H27.231H27.2489H27.2672H27.2857H27.3046H27.3237H27.3431H27.3629H27.3829H27.4032H27.4238H27.4447H27.4659H27.4874H27.5091H27.5312H27.5535H27.5761H27.599H27.6222H27.6457H27.6695H27.6936H27.7179H27.7425H27.7674H27.7926H27.8181H27.8438H27.8699H27.8962H27.9228H27.9496H27.9768H28.0042H28.0319H28.0599H28.0881H28.1167H28.1455H28.1745H28.2039H28.2335H28.2634H28.2936H28.324H28.3548H28.3857H28.417H28.4485H28.4803H28.5124H28.5447H28.5773H28.6102H28.6433H28.6767H28.7103H28.7443H28.7784H28.8129H28.8476H28.8826H28.9178H28.9533H28.9891H29.0251H29.0613H29.0979H29.1347H29.1717H29.209H29.2466H29.2844H29.3225H29.3608H29.3994H29.4382H29.4773H29.5166H29.5562H29.5961H29.6362H29.6765H29.7171H29.7579H29.799H29.8404H29.882H29.9238H29.9659H30.0082H30.0508H30.0936H30.1366H30.1799H30.2235H30.2673H30.3113H30.3556H30.4001H30.4448H30.4898H30.535H30.5805H30.6262H30.6721H30.7183H30.7647H30.8114H30.8583H30.9054H30.9527H31.0003H31.0481H31.0962H31.1445H31.193H31.2417H31.2907H31.3399H31.3893H31.439H31.4888H31.539H31.5893H31.6399H31.6906H31.7417H31.7929H31.8444H31.896H31.9479H32.0001H32.0524H32.105H32.1578H32.2108H32.264H32.3175H32.3711H32.425H32.4791H32.5334H32.588H32.6427H32.6977H32.7528H32.8082H32.8638H32.9196H32.9757H33.0319H33.0883H33.145H33.2019H33.2589H33.3162H33.3737H33.4314H33.4893H33.5474H33.6057H33.6643H33.723H33.7819H33.841H33.9004H33.9599H34.0197H34.0796H34.1397H34.2001H34.2606H34.3214H34.3823H34.4434H34.5048H34.5663H34.628H34.6899H34.752H34.8143H34.8768H34.9395H35.0024H35.0655H35.1288H35.1922H35.2559H35.3197H35.3837H35.448H35.5124H35.577H35.6417H35.7067H35.7719H35.8372H35.9027H35.9684H36.0343H36.1004H36.1666H36.2331H36.2997H36.3665H36.4335H36.5006H36.568H36.6355H36.7032H36.771H36.8391H36.9073H36.9757H37.0443H37.113H37.1819H37.251H37.3203H37.3897H37.4594H37.5291H37.5991H37.6692H37.7395H37.81H37.8806H37.9514H38.0223H38.0935H38.1648H38.2362H38.3079H38.3796H38.4516H38.5237H38.596H38.6684H38.741H38.8138H38.8867H38.9598H39.0331H39.1065H39.18H39.2537H39.3276H39.4016H39.4758H39.5502H39.6247H39.6993H39.7741H39.8491H39.9242H39.9994H40.0749H40.1504H40.2261H40.302H40.378H40.4542H40.5305H40.6069H40.6835H40.7603H40.8372H40.9142H40.9914H41.0687H41.1462H41.2238H41.3015H41.3794H41.4575H41.5357H41.614H41.6924H41.771H41.8498H41.9286H42.0076H42.0868H42.1661H42.2455H42.325H42.4047H42.4846H42.5645H42.6446H42.7248H42.8052H42.8856H42.9663H43.047H43.1279H43.2089H43.29H43.3712H43.4526H43.5341H43.6158H43.6975H43.7794H43.8614H43.9436H44.0258H44.1082H44.1907H44.2733H44.356H44.4389H44.5219H44.605H44.6882H44.7715H44.855H44.9386H45.0222H45.106H45.19H45.274H45.3581H45.4424H45.5268H45.6113H45.6959H45.7806H45.8654H45.9503H46.0353H46.1205H46.2057H46.2911H46.3766H46.4622H46.5478H46.6336H46.7195H46.8055H46.8916H46.9778H47.0641H47.1505H47.237H47.3237H47.4104H47.4972H47.5841H47.6711H47.7582H47.8454H47.9327H48.0201H48.1076H48.1952H48.2829H48.3707H48.4585H48.5465H48.6346H48.7227H48.811H48.8993H48.9877H49.0762H49.1648H49.2535H49.3423H49.4312H49.5201H49.6092H49.6983H49.7875H49.8768H49.9662H50.0556H50.1452H50.2348H50.3245H50.4143H50.5042H50.5941H50.6842H50.7743H50.8645H50.9547H51.0451H51.1355H51.226H51.3165H51.4072H51.4979H51.5887H51.6796H51.7705H51.8615H51.9526H52.0438H52.135H52.2263H52.3177H52.4091H52.5006H52.5922H52.6838H52.7755H52.8673H52.9591H53.051H53.143H53.235H53.3271H53.4193H53.5115H53.6037H53.6961H53.7885H53.8809H53.9735H54.066H54.1587H54.2514H54.3441H54.4369H54.5298H54.6227H54.7157H54.8087H54.9018H54.9949H55.0881H55.1813H55.2746H55.3679H55.4613H55.5548H55.6483H55.7418H55.8354H55.929H56.0227H56.1164H56.2102H56.304H56.3979H56.4918H56.5857H56.6797H56.7737H56.8678H56.9619H57.0561H57.1503C60.6147 61.5 62.7564 60.3105 64.0083 58.7472C65.2929 57.1431 65.8025 54.9425 65.5791 52.6745C65.3553 50.4036 64.409 48.2249 62.9977 46.7455C61.616 45.2971 59.8232 44.5365 57.7185 44.8939C56.7201 45.0634 55.7567 44.3667 55.6239 43.3465C55.1826 39.955 53.7625 37.7473 51.982 36.391C50.1758 35.015 47.8708 34.4193 45.5344 34.5093C43.1919 34.5996 40.9204 35.3771 39.2447 36.615C37.5773 37.8468 36.5806 39.4613 36.5047 41.2723C36.4667 42.1815 35.7282 42.9944 34.7214 43.0009C32.2411 43.0169 30.416 43.2593 29.2216 43.8591C28.6597 44.1414 28.2716 44.487 28.0072 44.9084C27.7401 45.3342 27.5404 45.9312 27.5051 46.8036C27.47 47.6719 26.8156 48.3977 25.9506 48.5176C22.2749 49.0272 19.9139 51.995 19.7346 54.925C19.6467 56.3611 20.0815 57.7806 21.1497 58.9403Z" fill="black"/>
</svg>
