<svg id="south-icon"  viewBox="0 0 70 70" fill="none" xmlns="http://www.w3.org/2000/svg">
<path fill-rule="evenodd" clip-rule="evenodd" d="M60.4409 14.7015C58.2857 10.7759 55.2549 7.40887 51.5925 4.85693C51.5561 4.83155 51.5196 4.80625 51.4831 4.78104C51.4447 4.75458 51.4078 4.72669 51.3725 4.69748C50.7836 4.21127 50.6111 3.36062 51.0182 2.70062C51.4498 2.00096 52.369 1.78076 53.0479 2.24439C53.0899 2.2731 53.1319 2.3019 53.1737 2.33079C53.243 2.37859 53.3121 2.42665 53.3809 2.47497C57.3802 5.28129 60.6911 8.97151 63.0504 13.2688C65.7141 18.1204 67.0739 23.58 66.9969 29.1142C66.92 34.6484 65.4089 40.068 62.6114 44.8437C60.1335 49.0737 56.7213 52.6705 52.6455 55.3645C52.5754 55.4109 52.505 55.457 52.4344 55.5029C52.3917 55.5306 52.349 55.5582 52.3062 55.5857C51.6147 56.0303 50.7019 55.7847 50.29 55.0733C49.9014 54.4022 50.0975 53.5567 50.6996 53.087C50.7358 53.0588 50.7734 53.032 50.8125 53.0066C50.8497 52.9824 50.8869 52.9581 50.924 52.9338C54.656 50.4846 57.7792 47.2032 60.0427 43.339C62.58 39.0076 63.9505 34.0921 64.0203 29.0728C64.0901 24.0534 62.8568 19.1018 60.4409 14.7015ZM9.95726 43.339C12.2208 47.2032 15.344 50.4846 19.076 52.9338C19.1131 52.9581 19.1503 52.9824 19.1875 53.0066C19.2266 53.032 19.2642 53.0588 19.3004 53.087C19.9025 53.5567 20.0986 54.4022 19.71 55.0733C19.2981 55.7847 18.3853 56.0303 17.6938 55.5857C17.651 55.5582 17.6083 55.5306 17.5656 55.5029C17.495 55.457 17.4247 55.4109 17.3545 55.3645C13.2787 52.6705 9.86653 49.0737 7.38861 44.8437C4.59108 40.068 3.08004 34.6484 3.00309 29.1142C2.92614 23.58 4.28591 18.1204 6.94957 13.2688C9.30892 8.97151 12.6198 5.28129 16.6191 2.47496C16.6879 2.42664 16.757 2.37859 16.8263 2.33079C16.8682 2.3019 16.9101 2.2731 16.9521 2.24439C17.631 1.78076 18.5502 2.00096 18.9818 2.70062C19.3889 3.36062 19.2164 4.21127 18.6275 4.69748C18.5922 4.72669 18.5553 4.75458 18.5169 4.78104C18.4804 4.80625 18.4439 4.83155 18.4075 4.85693C14.7451 7.40887 11.7143 10.7759 9.55907 14.7015C7.14321 19.1018 5.90994 24.0534 5.97973 29.0728C6.04952 34.0921 7.41999 39.0076 9.95726 43.339ZM45.0497 42.9404C44.351 43.4324 43.3997 43.1746 42.9715 42.4352C42.5433 41.6957 42.8017 40.7556 43.4908 40.2504C45.0679 39.0941 46.3969 37.6244 47.3908 35.9277C48.6462 33.7845 49.3243 31.3524 49.3588 28.8689C49.3934 26.3854 48.7832 23.9354 47.5878 21.7582C46.6414 20.0345 45.3539 18.5284 43.8095 17.3287C43.1347 16.8045 42.9026 15.8576 43.3512 15.1303C43.7998 14.4031 44.7579 14.1719 45.4426 14.6831C47.4378 16.1727 49.0962 18.0759 50.3002 20.269C51.7531 22.9154 52.4948 25.8933 52.4529 28.912C52.4109 31.9306 51.5867 34.8868 50.0608 37.4917C48.7962 39.6504 47.0855 41.5068 45.0497 42.9404ZM27.0285 42.4352C26.6003 43.1746 25.649 43.4324 24.9503 42.9404C22.9145 41.5068 21.2038 39.6504 19.9392 37.4917C18.4133 34.8868 17.5891 31.9306 17.5471 28.912C17.5052 25.8933 18.2469 22.9154 19.6998 20.269C20.9038 18.0759 22.5622 16.1727 24.5574 14.6831C25.2421 14.1719 26.2002 14.4031 26.6488 15.1303C27.0974 15.8576 26.8653 16.8045 26.1905 17.3287C24.6461 18.5284 23.3586 20.0345 22.4122 21.7582C21.2168 23.9354 20.6066 26.3854 20.6412 28.8689C20.6757 31.3524 21.3538 33.7845 22.6092 35.9277C23.6031 37.6244 24.9321 39.0941 26.5092 40.2504C27.1983 40.7556 27.4567 41.6957 27.0285 42.4352ZM34.9999 30.5178C36.0207 30.5178 36.8483 29.6902 36.8483 28.6693C36.8483 27.6484 36.0207 26.8208 34.9999 26.8208C33.979 26.8208 33.1514 27.6484 33.1514 28.6693C33.1514 29.6902 33.979 30.5178 34.9999 30.5178ZM39.8483 28.6693C39.8483 30.9934 38.213 32.9356 36.0303 33.4081V45.1541H37.8483C38.9529 45.1541 39.8483 46.0495 39.8483 47.1541V65.4571C39.8483 66.5617 38.9529 67.4571 37.8483 67.4571H32.1514C31.0468 67.4571 30.1514 66.5617 30.1514 65.4571V47.1541C30.1514 46.0495 31.0468 45.1541 32.1514 45.1541H34.0303V33.4208C31.8171 32.9716 30.1514 31.015 30.1514 28.6693C30.1514 25.9915 32.3221 23.8208 34.9999 23.8208C37.6776 23.8208 39.8483 25.9915 39.8483 28.6693ZM33.1514 64.4571V48.1541H36.8483V64.4571H33.1514Z" fill="black"/>
</svg>
